PathFileType	4	(X/Y/Z)	C:/Users/beibeiliu/ov580/test_trc\sequence.41_training_dense_left.trc
DataRate	CameraRate	NumFrames	NumMarkers	Units	OrigDataRate	OrigDataStartFrame	OrigNumFrames
120	120	16	19	mm	120	29	85
Frame#	Time	ThumbCMC			ThumbMCP			ThumbIP			ThumbTip			IndexMCP			IndexPIP			IndexTip			MiddleMCP			MiddlePIP			MiddleTip			RingMCP			RingPIP			RingTip			PinkyMCP			PinkyPIP			PinkyTip			BackHand1			BackHand2			BackHand3	
		X0	Y0	Z0	X1	Y1	Z1	X2	Y2	Z2	X3	Y3	Z3	X4	Y4	Z4	X5	Y5	Z5	X6	Y6	Z6	X7	Y7	Z7	X8	Y8	Z8	X9	Y9	Z9	X10	Y10	Z10	X11	Y11	Z11	X12	Y12	Z12	X13	Y13	Z13	X14	Y14	Z14	X15	Y15	Z15	X16	Y16	Z16	X17	Y17	Z17	X18	Y18	Z18	
28	0.233333	-218.819	18.2165	76.4251	-214.078	42.0209	61.4416	-202.446	56.5536	43.4788	-188.577	69.9908	33.6809	-175.111	8.62105	29.2928	-164.819	24.2372	11.0565	-165.329	54.9369	4.57016	-157.25	6.90271	38.5865	-141.14	23.9791	15.3638	-143.972	51.0372	12.868	-143.812	14.7735	50.7841	-136.742	31.293	29.7718	-143.46	53.384	24.8115	-140.947	27.1399	69.1114	-140.182	49.0036	54.8461	-160.637	63.6091	56.0638	-164.712	2.31423	88.4012	-183.175	-2.96102	113.048	-193.779	-7.65165	85.8247	
29	0.241667	-221.059	23.88	80.0821	-213.041	45.7863	58.0874	-207.993	60.133	38.6707	-191.058	73.8613	27.4284	-177.472	8.92092	32.3549	-168.675	22.6222	8.45224	-172.299	50.9102	-0.917499	-154.339	7.43354	39.8158	-142.356	21.3439	15.9708	-149.063	52.187	7.11149	-147.134	15.9014	51.0283	-138.294	29.8832	29.6144	-142.557	53.4847	22.5752	-144.205	29.2427	66.4947	-140.448	47.722	48.4108	-159.896	63.2442	47.8811	-172.676	7.58601	90.2965	-184.059	6.00666	110.887	-197.059	-2.10755	87.1409	
30	0.25	-215.818	28.702	79.3644	-214.574	49.2264	52.8758	-203.946	59.4856	38.8952	-187.739	70.3294	22.5907	-180.749	5.87448	28.3262	-169.34	17.5359	10.4623	-171.27	47.2616	-2.18267	-158.129	7.24074	42.4158	-143.723	16.5944	15.1673	-147.919	43.8318	4.96387	-147.007	13.7691	50.1031	-137.464	27.0884	26.8308	-148.513	47.3793	15.1918	-141.707	29.6554	63.6525	-137.665	41.9541	45.2525	-156.341	63.4573	38.0514	-165.85	12.329	90.8146	-180.723	14.5983	114.282	-194.293	3.91655	90.0118	
31	0.258333	-215.681	34.4586	82.5691	-213.8	52.1352	52.8062	-203.444	57.0203	36.0054	-191.84	66.0456	14.794	-180.267	2.90589	33.6116	-174.831	9.40999	9.97412	-175.813	34.5505	-5.14454	-159.614	1.14891	40.0408	-149.04	8.24958	13.9856	-153.367	34.4143	-1.79155	-147.049	13.4394	53.271	-140.537	15.8126	28.6004	-145.976	36.9243	10.6434	-140.135	28.5867	65.7428	-134.597	36.2284	40.2446	-146.954	51.7015	29.8683	-165.921	16.2251	92.5964	-179.711	22.5367	115.45	-196.656	9.56548	91.0188	
32	0.266667	-211.779	33.5405	83.0759	-209.34	46.663	55.0757	-203.003	50.8778	32.5007	-188.618	53.6343	14.5479	-185.744	-4.81412	41.335	-175.192	-1.20639	13.5135	-174.485	20.9115	-3.40368	-159.888	-4.57247	46.8037	-148.643	-5.95245	18.3983	-153.145	18.3453	-0.978865	-149.081	4.16129	54.2634	-139.377	4.24845	29.985	-143.425	21.2676	9.98547	-136.431	21.798	63.9359	-136.012	22.9638	39.2439	-146.052	41.0605	24.2923	-161.836	13.9885	93.6746	-175.274	23.5936	116.748	-188.772	11.5825	97.336	
33	0.275	-212.085	28.0893	84.4682	-207.308	38.1719	53.4506	-198.727	38.7621	29.0039	-188.762	41.3684	14.2756	-180.981	-12.2221	44.261	-173.766	-11.8212	16.7953	-175.825	9.41487	-1.9105	-159.869	-15.8241	46.9049	-149.427	-17.6353	21.1654	-151.867	2.79127	0.0216666	-147.478	-5.20476	53.2196	-140.068	-5.5325	30.3198	-143.871	10.8758	7.92298	-133.713	11.5288	60.5256	-135.52	13.799	38.425	-140.415	28.1129	21.2008	-162.302	7.43975	93.8807	-169.744	16.7026	114.74	-186.255	3.72405	99.2379	
34	0.283333	-208.762	23.4968	86.1806	-207.333	34.4757	54.7669	-198.899	33.8596	33.6849	-186.34	33.8326	14.2345	-182.7	-18.0565	45.5296	-174.185	-15.0852	14.884	-174.727	1.33831	-0.402271	-158.691	-22.4797	47.5937	-148.228	-21.8791	19.8455	-153.181	0.946842	-1.11669	-144.354	-9.03934	55.8106	-141.533	-11.8144	27.357	-144.186	5.67396	7.11943	-134.731	9.89127	64.5472	-134.094	9.27749	36.8417	-144.731	22.7523	20.8562	-160.769	3.66191	94.5759	-168.288	15.5797	118.586	-183.623	0.286356	100.113	
35	0.291667	-210.514	24.3082	85.9251	-204.701	32.5135	53.0176	-196.956	34.1402	34.4468	-184.552	36.9219	14.8182	-181.666	-18.1871	42.1197	-176.871	-13.297	11.5744	-175.954	5.13656	-1.76097	-153.058	-18.8073	46.6336	-147.708	-18.4296	17.9848	-152.142	3.41074	-2.10221	-142.337	-6.42787	54.1747	-138.689	-6.79098	25.1567	-144.294	9.05548	8.59448	-132.546	8.89672	59.7152	-133.785	13.8743	35.4535	-142.347	28.986	23.7823	-156.818	3.14925	93.1484	-165.934	13.2336	117.4	-184.464	1.91214	99.5148	
36	0.3	-210.5	24.7808	83.3748	-202.981	38.6769	54.0225	-195.481	44.3568	35.5012	-184.593	52.4962	13.0643	-172.225	-4.95777	36.8157	-165.77	0.638041	12.2972	-166.928	24.1635	-2.40199	-150.674	-5.89949	43.4575	-141.749	-3.36784	15.9047	-142.193	24.131	0.187968	-139.53	6.65527	53.508	-133.374	9.95544	27.7316	-143.12	32.958	9.38819	-132.609	21.2238	59.1867	-133.383	29.6122	38.557	-145.609	50.0864	30.262	-155.212	10.965	94.3162	-166.89	12.8584	114.977	-182.763	3.25712	95.3453	
37	0.308333	-206.212	29.1856	78.5795	-200.03	51.138	54.1218	-191.911	63.0041	40.646	-178.965	77.1509	23.7836	-162.455	16.5201	27.5287	-156.241	31.0853	7.29024	-161.397	55.8647	-0.858837	-143.077	16.7377	40.8051	-130.882	28.4424	15.5067	-133.652	57.0071	7.03267	-132.782	25.7424	53.2197	-128.032	39.3475	26.3592	-134.32	66.1907	19.6534	-128.759	38.5136	68.8323	-127.503	55.7564	48.8543	-145.189	69.8246	42.5115	-158.635	15.0379	91.0849	-165.445	13.0597	113.68	-182.795	5.03788	84.6954	
38	0.316667	-204.213	34.4101	78.123	-202.969	63.8459	59.4	-190.85	79.5749	46.4087	-175.529	93.2446	41.6278	-161.693	34.8845	29.8636	-154.373	56.2607	10.0375	-153.852	82.6502	10.5571	-142.845	33.6198	37.3185	-127.116	53.9966	19.9121	-130.713	86.1148	18.2444	-132.014	40.7427	51.923	-123.787	60.5776	35.5041	-131.254	85.274	32.7008	-128.494	52.6267	71.0891	-127.9	74.1464	61.7827	-150.387	91.3941	62.8205	-154.865	21.5074	89.9203	-170.143	11.963	106.016	-182.069	9.90792	79.267	
39	0.325	-205.698	37.2372	78.5309	-203.039	65.8962	67.2875	-189.996	87.3883	54.3075	-171.408	104.3	50.4573	-159.796	49.7284	28.5904	-153.519	68.36	17.3822	-155.352	98.4738	20.5914	-137.892	46.0443	39.7531	-127.638	70.239	26.8321	-129.567	96.5361	30.7564	-133.741	49.0273	55.1647	-124.956	74.0192	44.9888	-132.847	100.122	48.5742	-128.261	59.4705	76.6531	-132.313	81.796	72.442	-154.146	94.5411	76.6783	-158.167	19.9019	85.0517	-170.545	11.1041	104.191	-185.891	13.8039	76.9546	
40	0.333333	-213.568	44.1051	78.3491	-205.675	73.127	72.3289	-193.931	93.3864	64.8228	-176.828	110.785	63.6584	-162.536	58.6624	33.2374	-156.444	81.9187	25.8984	-153.669	106.078	34.6421	-142.858	53.3442	43.436	-130.705	77.3075	34.9788	-136.296	106.564	42.5346	-134.281	53.9598	61.2658	-127.633	79.5276	54.5417	-139.398	104.735	63.7029	-133.103	56.1118	81.7284	-133.206	80.8942	84.1761	-153.281	96.1742	86.1276	-157.815	21.1672	83.8044	-176.653	7.93249	100.497	-188.059	16.0603	75.5917	
41	0.341667	-219.041	48.0555	81.0106	-211.107	75.9819	82.7939	-196.264	101.232	76.1083	-177.43	113.111	77.0846	-171.495	66.8853	38.2481	-160.23	89.1639	32.9934	-154.963	112.195	46.4542	-147.067	60.284	45.8498	-134.696	85.6611	41.8946	-134.871	110.744	60.1197	-138.469	56.6343	64.9527	-133.908	84.0775	62.737	-144.064	104.914	76.5158	-133.908	56.2713	87.3006	-137.139	80.0888	91.182	-156.087	95.6457	101.106	-167.169	21.8964	80.7801	-185.985	8.85916	94.4579	-197.997	21.4258	73.3345	
42	0.35	-221.776	54.9005	82.4561	-218.159	85.0544	85.2812	-197.747	102.701	83.7961	-182.875	115.303	86.7597	-179.77	76.5962	39.39	-164.719	102.166	40.3024	-160.299	124.008	57.4682	-153.662	69.3	46.5024	-138.982	92.9172	48.4312	-143.398	118.418	68.3717	-145.55	61.8162	66.0391	-136.108	88.8463	72.5126	-148.092	106.735	86.6541	-140.604	56.756	86.6954	-141.997	80.4139	92.9798	-158.626	94.7429	103.021	-177.335	24.2475	77.7387	-194.015	10.7918	91.1473	-205.054	27.6914	71.1757	
43	0.358333	-228.319	59.6364	83.9575	-218.623	87.3341	89.2234	-206.301	106.238	90.5598	-185.208	122.646	94.031	-178.511	84.748	44.8162	-170.293	108.753	43.7089	-162.985	127.856	61.4856	-159.325	73.828	51.8279	-144.937	103.303	52.9006	-145.443	120.387	75.7437	-149.085	70.6331	66.4337	-141.03	92.1433	74.0218	-149.407	109.313	95.6194	-145.944	62.4656	84.4977	-144.289	82.0657	95.2123	-158.5	95.8788	106.013	-181.315	31.5139	73.5328	-196.504	12.8721	88.7281	-211.449	34.3573	69.5342	
